<?xml version="1.0" encoding="UTF-8"?>
<svg version="1.1" xmlns="http://www.w3.org/2000/svg" width="677" height="369">
<path d="M0 0 C0.33 0.66 0.66 1.32 1 2 C2.11890625 1.83757812 3.2378125 1.67515625 4.390625 1.5078125 C9.18627658 0.90994052 13.9226484 0.85226522 18.75 0.875 C20.00490234 0.86919922 20.00490234 0.86919922 21.28515625 0.86328125 C22.09339844 0.86457031 22.90164063 0.86585937 23.734375 0.8671875 C24.45850586 0.86831543 25.18263672 0.86944336 25.92871094 0.87060547 C28.06053803 1.00378184 29.94890051 1.41818107 32 2 C32.33 1.34 32.66 0.68 33 0 C33 0.66 33 1.32 33 2 C33.66 2 34.32 2 35 2 C35 1.34 35 0.68 35 0 C39.48525648 0.656379 43.66914029 1.70074209 48 3 C47.67 4.98 47.34 6.96 47 9 C46.27554688 9.08636719 45.55109375 9.17273438 44.8046875 9.26171875 C38.36670081 10.19737282 34.3747453 11.06438992 30 16 C28.6954344 18.99615946 28.6954344 18.99615946 28 22 C27.50088262 22.91383973 27.50088262 22.91383973 26.99168205 23.84614086 C23.35245074 31.75027869 24.85627417 43.08033952 24.87060547 51.61206055 C24.86885315 52.91608826 24.86710083 54.22011597 24.86529541 55.56365967 C24.86078193 59.10270635 24.86248493 62.64172351 24.8656745 66.18077064 C24.86822824 69.90410926 24.86585238 73.62744556 24.86428833 77.3507843 C24.86247605 83.59689787 24.86484886 89.84299957 24.86962891 96.08911133 C24.87507687 103.29076833 24.87330119 110.49239703 24.8678025 117.69405335 C24.86325302 123.90330422 24.86262958 130.11254662 24.86524117 136.32179862 C24.86679294 140.01912481 24.86702791 143.71643773 24.86370468 147.41376305 C24.8602585 151.53456656 24.86504563 155.65532184 24.87060547 159.77612305 C24.86756912 161.59283257 24.86756912 161.59283257 24.86447144 163.44624329 C24.88007057 169.70255304 24.97922972 175.81824248 26 182 C26.66 182.33 27.32 182.66 28 183 C28 184.65 28 186.3 28 188 C28.66 188 29.32 188 30 188 C30 188.99 30 189.98 30 191 C32.63904371 192.41377341 35.07120629 193.37240135 38 194 C38 194.66 38 195.32 38 196 C39.32 195.67 40.64 195.34 42 195 C42 195.66 42 196.32 42 197 C43.98 197.33 45.96 197.66 48 198 C48.33 199.65 48.66 201.3 49 203 C42.68386851 204.29561672 36.24979855 204.78161678 30 203 C29.67 203.66 29.34 204.32 29 205 C29 204.34 29 203.68 29 203 C27.80503906 203.0721875 26.61007812 203.144375 25.37890625 203.21875 C23.77344548 203.31263659 22.16797627 203.40637885 20.5625 203.5 C19.3878418 203.57154297 19.3878418 203.57154297 18.18945312 203.64453125 C3.29306829 204.50275918 3.29306829 204.50275918 -2 203 C-2.33 203.66 -2.66 204.32 -3 205 C-3 204.34 -3 203.68 -3 203 C-4.19496094 203.0721875 -5.38992188 203.144375 -6.62109375 203.21875 C-8.22655452 203.31263659 -9.83202373 203.40637885 -11.4375 203.5 C-12.6121582 203.57154297 -12.6121582 203.57154297 -13.81054688 203.64453125 C-17.86223716 203.87796197 -21.91515058 204.06519798 -25.97265625 204.15625 C-26.698479 204.17494141 -27.42430176 204.19363281 -28.17211914 204.21289062 C-30 204 -30 204 -32 202 C-32 200.68 -32 199.36 -32 198 C-30 196.25 -30 196.25 -28 195 C-28 195.66 -28 196.32 -28 197 C-19.40314836 194.66195427 -19.40314836 194.66195427 -12.921875 188.921875 C-6.87808029 176.3220996 -7.94524432 160.65494401 -7.875 147 C-7.87024658 146.22833496 -7.86549316 145.45666992 -7.8605957 144.66162109 C-7.79257461 140.70152149 -7.79257461 140.70152149 -9 137 C-8.34 137 -7.68 137 -7 137 C-7.24398781 135.07390648 -7.24398781 135.07390648 -7.49290466 133.10890198 C-8.04179898 128.14298594 -8.13449277 123.24947743 -8.11352539 118.25756836 C-8.11367142 117.32966492 -8.11381744 116.40176147 -8.1139679 115.44573975 C-8.11327701 112.41041643 -8.10552358 109.37515621 -8.09765625 106.33984375 C-8.09578914 104.22278375 -8.09436662 102.10572331 -8.09336853 99.98866272 C-8.08956644 94.44030547 -8.07975605 88.89197476 -8.06866455 83.34362793 C-8.05840062 77.67244831 -8.05386027 72.00126437 -8.04882812 66.33007812 C-8.03813155 55.22004048 -8.02108309 44.11002245 -8 33 C-8.26554687 33.85464844 -8.53109375 34.70929688 -8.8046875 35.58984375 C-9.15789062 36.69457031 -9.51109375 37.79929688 -9.875 38.9375 C-10.22304688 40.03964844 -10.57109375 41.14179688 -10.9296875 42.27734375 C-12 45 -12 45 -14 46 C-14.46523063 47.89533342 -14.46523063 47.89533342 -14.625 50.0625 C-14.74875 51.361875 -14.8725 52.66125 -15 54 C-15.66 54 -16.32 54 -17 54 C-16.67 54.99 -16.34 55.98 -16 57 C-16.66 57 -17.32 57 -18 57 C-18.11730469 57.87140625 -18.23460937 58.7428125 -18.35546875 59.640625 C-18.99302186 62.96362906 -19.96215813 65.65633752 -21.3125 68.75 C-21.75980469 69.79414063 -22.20710938 70.83828125 -22.66796875 71.9140625 C-23.10753906 72.93242187 -23.54710937 73.95078125 -24 75 C-26.76060007 81.56732228 -29.07322056 88.13949745 -31 95 C-31.66 95 -32.32 95 -33 95 C-33.18175781 95.87011719 -33.18175781 95.87011719 -33.3671875 96.7578125 C-34.33735474 101.28028442 -35.43397783 105.63750966 -37 110 C-37.66 110 -38.32 110 -39 110 C-38.67 111.32 -38.34 112.64 -38 114 C-38.66 114 -39.32 114 -40 114 C-40.19335938 114.78246094 -40.38671875 115.56492187 -40.5859375 116.37109375 C-40.84632813 117.38300781 -41.10671875 118.39492187 -41.375 119.4375 C-41.75785156 120.95150391 -41.75785156 120.95150391 -42.1484375 122.49609375 C-43 125 -43 125 -45 126 C-44.67 126.99 -44.34 127.98 -44 129 C-44.66 129 -45.32 129 -46 129 C-46.103125 129.84691406 -46.20625 130.69382813 -46.3125 131.56640625 C-47.31182046 136.55733059 -49.50398134 140.86080565 -51.625 145.46484375 C-53.05323389 149.13686553 -53.60257791 152.11023129 -54 156 C-54.66 156 -55.32 156 -56 156 C-56 157.65 -56 159.3 -56 161 C-56.66 161 -57.32 161 -58 161 C-58.185625 161.7734375 -58.185625 161.7734375 -58.375 162.5625 C-59.18641628 165.72702351 -60.0945913 168.86124985 -61 172 C-61.66 172 -62.32 172 -63 172 C-63.268125 172.9075 -63.53625 173.815 -63.8125 174.75 C-65.73980071 180.02471773 -69.01894266 183.11372974 -73 187 C-73.804375 187.845625 -74.60875 188.69125 -75.4375 189.5625 C-82.20512821 196 -82.20512821 196 -86 196 C-86.33 196.66 -86.66 197.32 -87 198 C-89.109375 199.10546875 -89.109375 199.10546875 -91.75 200.1875 C-92.61109375 200.55230469 -93.4721875 200.91710937 -94.359375 201.29296875 C-97.31736724 202.08497555 -99.08336619 201.82358185 -102 201 C-102 198.36 -102 195.72 -102 193 C-101.01 192.67 -100.02 192.34 -99 192 C-98.01 191.34 -97.02 190.68 -96 190 C-95.38125 189.773125 -94.7625 189.54625 -94.125 189.3125 C-89.58031372 186.50548789 -86.44685728 181.06400047 -85 176 C-85.33 175.34 -85.66 174.68 -86 174 C-85.34 174 -84.68 174 -84 174 C-84.33 173.01 -84.66 172.02 -85 171 C-84.67 170.67 -84.34 170.34 -84 170 C-83.53455151 162.11984874 -83.73209239 154.58040351 -86 147 C-86.495 145.2675 -86.495 145.2675 -87 143.5 C-87.73702265 140.85467041 -87.73702265 140.85467041 -90 140 C-90.625 137.9375 -90.625 137.9375 -91 136 C-91.66 136 -92.32 136 -93 136 C-94.110682 134.79260954 -95.16465549 133.53265169 -96.1875 132.25 C-99.46505307 128.36651275 -102.45827088 126.22452039 -107 124 C-107 123.34 -107 122.68 -107 122 C-107.99 121.62875 -107.99 121.62875 -109 121.25 C-112.17472375 119.92719844 -115.18584317 118.39976859 -118.23046875 116.8046875 C-119.97944855 115.86201522 -119.97944855 115.86201522 -122 116 C-122 115.34 -122 114.68 -122 114 C-123.11375 113.71125 -124.2275 113.4225 -125.375 113.125 C-129 112 -129 112 -131 110 C-132.72021101 98.40727365 -131.82173901 86.63076749 -131 75 C-125.69885197 75.86205585 -121.00811931 77.92154206 -116.05859375 79.94140625 C-112.909434 81.21804607 -112.909434 81.21804607 -109 81 C-109 81.66 -109 82.32 -109 83 C-108.34 83 -107.68 83 -107 83 C-107 83.66 -107 84.32 -107 85 C-103.68885166 86.12880057 -100.41021743 87.21302675 -97 88 C-97 88.66 -97 89.32 -97 90 C-95.68 90 -94.36 90 -93 90 C-93 90.66 -93 91.32 -93 92 C-91.948125 92.37125 -91.948125 92.37125 -90.875 92.75 C-87.60485452 94.17180238 -84.858878 95.87246288 -82 98 C-82 98.66 -82 99.32 -82 100 C-81.319375 100.165 -80.63875 100.33 -79.9375 100.5 C-75.58649824 102.72178813 -73.07457564 106.28262894 -70 110 C-69.01 110.99 -69.01 110.99 -68 112 C-66.91909359 113.78937616 -65.88217505 115.60560914 -64.875 117.4375 C-64.33617187 118.40558594 -63.79734375 119.37367188 -63.2421875 120.37109375 C-62 123 -62 123 -62 126 C-61.34 126.33 -60.68 126.66 -60 127 C-60 127.99 -60 128.98 -60 130 C-59.36893571 132.01151741 -58.70626239 134.01363702 -58 136 C-55.6756519 131.95651948 -55.6756519 131.95651948 -55 127.4375 C-55 124.19582518 -53.71622449 122.73324641 -52 120 C-50.90595745 117.36678975 -49.96409611 114.68294174 -49 112 C-48.67 111.195625 -48.34 110.39125 -48 109.5625 C-46.76096686 106.38747757 -45.77423721 103.15021344 -44.78125 99.890625 C-44 98 -44 98 -42 97 C-41.42045787 95.08155935 -41.42045787 95.08155935 -41.0625 92.8125 C-40.26581424 88.80357725 -38.9022041 85.63148056 -37 82 C-37 81.01 -37 80.02 -37 79 C-36.34 79 -35.68 79 -35 79 C-34.82597656 77.69482422 -34.82597656 77.69482422 -34.6484375 76.36328125 C-34.00169508 73.00879197 -33.00218035 70.30493551 -31.625 67.1875 C-29.69545851 62.72786808 -28.04462839 58.3053298 -26.67578125 53.64453125 C-26 52 -26 52 -24 51 C-23.64216923 49.33842062 -23.315663 47.67010352 -23 46 C-22.09705356 43.43841039 -21.16604844 40.90700536 -20.1875 38.375 C-19.64546209 36.95066205 -19.10379701 35.52618218 -18.5625 34.1015625 C-18.29695313 33.40579102 -18.03140625 32.71001953 -17.7578125 31.99316406 C-16.71568705 29.25221298 -15.69676202 26.50320742 -14.6875 23.75 C-14.38199219 22.91984375 -14.07648438 22.0896875 -13.76171875 21.234375 C-13.05812971 19.17051382 -12.49182989 17.12314685 -12 15 C-11.34 15 -10.68 15 -10 15 C-9.814375 13.6696875 -9.814375 13.6696875 -9.625 12.3125 C-9.05273906 9.27951703 -8.21885156 6.81859423 -7 4 C-6.67 3.01 -6.34 2.02 -6 1 C-3.03 1.495 -3.03 1.495 0 2 C0 1.34 0 0.68 0 0 Z " fill="#FFFF" transform="translate(426,95)"/>
<path d="M0 0 C0.495 0.99 0.495 0.99 1 2 C5.29 2 9.58 2 14 2 C14.33 1.34 14.66 0.68 15 0 C15 0.66 15 1.32 15 2 C15.71285156 1.97679688 16.42570312 1.95359375 17.16015625 1.9296875 C22.90084723 1.82151836 27.49518669 2.23059572 33 4 C36.65249325 4.74657881 40.32682335 5.36416383 44 6 C46.0628264 6.37320032 48.12534056 6.74813174 50.1875 7.125 C51.57001953 7.37636719 51.57001953 7.37636719 52.98046875 7.6328125 C53.64691406 7.75398438 54.31335938 7.87515625 55 8 C55 8.66 55 9.32 55 10 C55.94875 10.0825 56.8975 10.165 57.875 10.25 C62.80055423 10.96516227 67.68263547 12.51376631 72 15 C75.57109178 20.14460409 75.2716866 27.71007009 74.5625 33.6875 C74.376875 34.450625 74.19125 35.21375 74 36 C74.66 36.33 75.32 36.66 76 37 C75.67 37.33 75.34 37.66 75 38 C75.05426057 40.14943689 75.18203645 42.29708351 75.33984375 44.44140625 C75.43330078 45.74658203 75.52675781 47.05175781 75.62304688 48.39648438 C75.72775092 49.78516482 75.83257014 51.17383659 75.9375 52.5625 C76.0388964 53.9550429 76.13981417 55.34762074 76.24023438 56.74023438 C76.48876798 60.16053011 76.74224354 63.58038892 77 67 C73.265625 68.0859375 73.265625 68.0859375 70.875 67.3125 C68.65683224 65.75978257 67.9431044 64.51494507 67 62 C67 61.34 67 60.68 67 60 C66.34 59.34 65.68 58.68 65 58 C65 57.01 65 56.02 65 55 C62.39642408 48.72146514 58.81942159 42.88530838 55.234375 37.12890625 C54 35 54 35 53 32 C52.34 32 51.68 32 51 32 C49 30 49 30 48 27 C46.35448038 26.28272222 44.68577711 25.61674772 43 25 C41 23 41 23 40 21 C39.01 21 38.02 21 37 21 C37 20.34 37 19.68 37 19 C33.59687343 17.6289562 30.18620121 16.28606361 26.75 15 C25.87859375 14.67 25.0071875 14.34 24.109375 14 C16.88265143 11.6758276 10.02618993 10.61075246 2.4375 10.625 C1.14682617 10.62632935 1.14682617 10.62632935 -0.16992188 10.62768555 C-9.49809147 10.7972104 -20.64468074 11.7826113 -28 18 C-28.94875 18.5775 -29.8975 19.155 -30.875 19.75 C-38.37538315 25.15027587 -42.57259805 32.07542433 -45 41 C-46.13976725 50.35600248 -45.31762757 59.51133098 -41 68 C-39.66788266 69.33454821 -38.33473463 70.66806944 -37 72 C-37 72.99 -37 73.98 -37 75 C-36.01 75 -35.02 75 -34 75 C-33.773125 75.61875 -33.54625 76.2375 -33.3125 76.875 C-31.61044153 79.63071371 -29.97290314 79.88516132 -27 81 C-26.01 82.485 -26.01 82.485 -25 84 C-23.03935022 85.09451046 -21.03223416 86.10744765 -19 87.0625 C-13.19589977 89.80410023 -13.19589977 89.80410023 -11 92 C-10.8046875 94.8203125 -10.8046875 94.8203125 -10.875 98.125 C-10.89304687 99.22070312 -10.91109375 100.31640625 -10.9296875 101.4453125 C-10.95289063 102.28835937 -10.97609375 103.13140625 -11 104 C-10.34 104.33 -9.68 104.66 -9 105 C-9.66 105 -10.32 105 -11 105 C-10.87431641 106.35931641 -10.87431641 106.35931641 -10.74609375 107.74609375 C-10.16445388 114.70368463 -9.92878268 121.09659946 -11 128 C-19 127.33333333 -19 127.33333333 -23 124 C-24.98014432 123.27648573 -26.97821315 122.59734611 -29 122 C-29 121.34 -29 120.68 -29 120 C-29.72058594 119.896875 -30.44117188 119.79375 -31.18359375 119.6875 C-34.30040688 118.92666906 -36.37176872 117.73005288 -39.0625 116 C-42.045707 114.08780568 -44.49770531 112.64707523 -48 112 C-48 111.34 -48 110.68 -48 110 C-48.53625 109.7525 -49.0725 109.505 -49.625 109.25 C-54.2957689 106.79170058 -58.52602183 104.00843635 -62 100 C-62 99.34 -62 98.68 -62 98 C-62.66 98 -63.32 98 -64 98 C-69.07069435 92.92930565 -70.72489249 87.74124482 -72.5546875 80.9375 C-73.5661756 77.09254561 -73.5661756 77.09254561 -76 74 C-75.70816101 72.65697398 -75.36833794 71.32409065 -75 70 C-75.09172872 67.83240852 -75.09172872 67.83240852 -75.4375 65.625 C-77.20092534 51.67790865 -72.04402774 38.90197791 -65 27 C-64.34 27 -63.68 27 -63 27 C-62.34 25.35 -61.68 23.7 -61 22 C-60.34 22 -59.68 22 -59 22 C-58.67 21.34 -58.34 20.68 -58 20 C-53.71990921 16.24087492 -49.59305858 13.39826464 -44 12 C-44 11.34 -44 10.68 -44 10 C-42.83082031 9.66226563 -41.66164062 9.32453125 -40.45703125 8.9765625 C-38.90881606 8.52617263 -37.36064109 8.0756445 -35.8125 7.625 C-35.04357422 7.40328125 -34.27464844 7.1815625 -33.48242188 6.953125 C-28.9444994 5.63382448 -28.9444994 5.63382448 -24.55078125 3.91015625 C-20.58916699 2.49659404 -16.54450081 2.21997394 -12.375 1.8125 C-11.51648438 1.71775391 -10.65796875 1.62300781 -9.7734375 1.52539062 C-3.38521275 0.87159575 -3.38521275 0.87159575 0 2 C0 1.34 0 0.68 0 0 Z " fill="#ffff" transform="translate(287,69)"/>
<path d="M0 0 C0.33 0.66 0.66 1.32 1 2 C2.11890625 1.83757812 3.2378125 1.67515625 4.390625 1.5078125 C9.18627658 0.90994052 13.9226484 0.85226522 18.75 0.875 C20.00490234 0.86919922 20.00490234 0.86919922 21.28515625 0.86328125 C22.09339844 0.86457031 22.90164063 0.86585937 23.734375 0.8671875 C24.45850586 0.86831543 25.18263672 0.86944336 25.92871094 0.87060547 C28.06053803 1.00378184 29.94890051 1.41818107 32 2 C32.33 1.34 32.66 0.68 33 0 C33 0.66 33 1.32 33 2 C34.794375 1.690625 34.794375 1.690625 36.625 1.375 C40.63674562 0.91347174 43.4051252 0.90995651 47 3 C48.75401909 6.1307586 50 9.38822457 50 13 C50.99 13.495 50.99 13.495 52 14 C52.78125 15.92578125 52.78125 15.92578125 53.5 18.3125 C54.22933653 20.71059022 54.93686287 22.87846103 56.09375 25.10546875 C57 27 57 27 57 30 C57.66 30.33 58.32 30.66 59 31 C60.03542034 33.51163391 60.97687565 36.00226054 61.875 38.5625 C63.93315275 44.25943153 66.16165488 49.63868145 69 55 C69.33 55.99 69.66 56.98 70 58 C70.71938688 59.75404291 71.45020885 61.50340738 72.1875 63.25 C74.19771013 68.04313109 76.14666649 72.85624121 78.0625 77.6875 C80.24660696 83.18725606 82.54405721 88.61581774 85 94 C82 95 82 95 79.6953125 93.890625 C78.84710938 93.34921875 77.99890625 92.8078125 77.125 92.25 C76.28195312 91.71890625 75.43890625 91.1878125 74.5703125 90.640625 C73.72210938 90.09921875 72.87390625 89.5578125 72 89 C65.14508214 84.82697488 58.25144866 80.77250612 50.75 77.875 C46.50162153 76.22435614 42.73447469 74.64525291 39 72 C37.6875 68.875 37.6875 68.875 37 66 C36.01 65.01 36.01 65.01 35 64 C34.27222644 61.9161796 33.61461865 59.80745418 33 57.6875 C32.06367391 54.47985164 31.14822111 51.359745 29.875 48.26953125 C29 46 29 46 29 43 C28.01 42.505 28.01 42.505 27 42 C26.33333333 40.33333333 25.66666667 38.66666667 25 37 C24.01 36.505 24.01 36.505 23 36 C23.33 36.66 23.66 37.32 24 38 C24.05924397 41.54353004 24.02103569 45.07244626 23.9609375 48.61523438 C23.91957306 52.58277391 24.1254967 56.10846033 25 60 C24.67619874 61.33568021 24.34342449 62.66923011 24 64 C24.37907282 66.18703385 24.37907282 66.18703385 25 68 C24.34 68 23.68 68 23 68 C23.33 68.66 23.66 69.32 24 70 C24.05924397 73.54353004 24.02103569 77.07244626 23.9609375 80.61523438 C23.91957306 84.58277391 24.1254967 88.10846033 25 92 C24.67619874 93.33568021 24.34342449 94.66923011 24 96 C24.37907282 98.18703385 24.37907282 98.18703385 25 100 C24.34 100 23.68 100 23 100 C23.33 100.66 23.66 101.32 24 102 C24.05924397 105.54353004 24.02103569 109.07244626 23.9609375 112.61523438 C23.91957306 116.58277391 24.1254967 120.10846033 25 124 C24.67619874 125.33568021 24.34342449 126.66923011 24 128 C24.37907282 130.18703385 24.37907282 130.18703385 25 132 C24.34 132 23.68 132 23 132 C23.33 132.66 23.66 133.32 24 134 C24.0471825 135.37419024 24.03727443 136.75050532 24 138.125 C23.92600356 145.44007619 24.48529831 152.70839274 25 160 C25.10828125 161.72476563 25.10828125 161.72476563 25.21875 163.484375 C25.58020955 168.67390139 26.16030956 173.09415884 28 178 C28 179.32 28 180.64 28 182 C28.66 182.33 29.32 182.66 30 183 C30.33333333 184.33333333 30.66666667 185.66666667 31 187 C31.66 187.33 32.32 187.66 33 188 C33.99 188.99 33.99 188.99 35 190 C36.2684375 190.7425 36.2684375 190.7425 37.5625 191.5 C40 193 40 193 41 195 C43.32353985 195.42985694 43.32353985 195.42985694 46 195.5625 C50.90381679 195.90381679 50.90381679 195.90381679 52 197 C52.04080783 198.99958364 52.04254356 201.00045254 52 203 C36.81161941 204.92868325 36.81161941 204.92868325 30 203 C29.67 203.66 29.34 204.32 29 205 C29 204.34 29 203.68 29 203 C27.80503906 203.0721875 26.61007812 203.144375 25.37890625 203.21875 C23.77344548 203.31263659 22.16797627 203.40637885 20.5625 203.5 C19.3878418 203.57154297 19.3878418 203.57154297 18.18945312 203.64453125 C3.29306829 204.50275918 3.29306829 204.50275918 -2 203 C-2.495 203.99 -2.495 203.99 -3 205 C-3 204.34 -3 203.68 -3 203 C-6.3 203 -9.6 203 -13 203 C-13 202.34 -13 201.68 -13 201 C-13.66 201 -14.32 201 -15 201 C-14.5 199.125 -14.5 199.125 -13 197 C-10.26933545 196.14946514 -7.78726648 195.50629123 -5 195 C-4.01 194.79375 -3.02 194.5875 -2 194.375 C-1.34 194.25125 -0.68 194.1275 0 194 C0 193.34 0 192.68 0 192 C1.05094774 191.12617828 2.14223486 190.30056977 3.25 189.5 C7.63731937 185.89740442 9.66187493 181.47057012 11 176 C10.505 175.01 10.505 175.01 10 174 C10.66 173.67 11.32 173.34 12 173 C12.43401015 170.91503935 12.43401015 170.91503935 12.5625 168.4375 C12.63597656 167.52484375 12.70945312 166.6121875 12.78515625 165.671875 C12.85605469 164.79015625 12.92695313 163.9084375 13 163 C13.165 161.741875 13.33 160.48375 13.5 159.1875 C15.19201667 145.56707201 15.1634265 132.0008356 15.16796875 118.296875 C15.17118775 116.00530985 15.17455229 113.71374491 15.17805481 111.42218018 C15.18401313 106.64147464 15.18589789 101.86078711 15.18530273 97.08007812 C15.18520078 90.96846212 15.19890258 84.8569614 15.21607494 78.74537277 C15.22721002 74.02178419 15.22922155 69.29822347 15.22869301 64.57462311 C15.22986893 62.32127736 15.23426881 60.06793079 15.24202538 57.81459808 C15.25186491 54.66375155 15.24893257 51.51315558 15.24291992 48.36230469 C15.25134918 46.98276108 15.25134918 46.98276108 15.25994873 45.5753479 C15.23200215 39.7877558 14.41919042 34.59961253 13 29 C12.75 27.47916667 12.5 25.95833333 12.25 24.4375 C11.04686071 19.33975426 9.12210666 15.34163426 5 12 C1.60692118 10.62563995 -1.71265962 9.64914219 -5.26953125 8.7890625 C-6.17058594 8.52867188 -7.07164062 8.26828125 -8 8 C-9.24546405 5.50907189 -8.7767578 4.58919267 -8 2 C-4.94736336 1.01879536 -3.05263664 1.01879536 0 2 C0 1.34 0 0.68 0 0 Z " fill="#FFFF" transform="translate(266,95)"/>
<path d="M0 0 C1.27875 -0.061875 2.5575 -0.12375 3.875 -0.1875 C4.95394531 -0.23970703 4.95394531 -0.23970703 6.0546875 -0.29296875 C6.69664062 -0.19628906 7.33859375 -0.09960938 8 0 C10.3449796 3.51746939 11.05323801 6.95407182 12 11 C12.58340398 13.38375219 13.23653436 15.66188648 14 18 C14.66 18.33 15.32 18.66 16 19 C16.75597896 20.70916981 17.50705186 22.42106947 18.2109375 24.15234375 C19.66706583 27.56199077 21.38244647 30.38244647 24 33 C24.598125 33.94875 25.19625 34.8975 25.8125 35.875 C28.03225393 39.04607705 29.89681552 40.72433138 33 43 C33.69609375 43.55945313 34.3921875 44.11890625 35.109375 44.6953125 C39.26073018 48.02475507 43.17215626 50.70677422 48 53 C48.33 53.66 48.66 54.32 49 55 C51.02463255 55.65213292 51.02463255 55.65213292 53 56 C52.67 57.65 52.34 59.3 52 61 C49.69 61.66 47.38 62.32 45 63 C44.67 62.34 44.34 61.68 44 61 C43.01 61.33 42.02 61.66 41 62 C33.05518395 62.07262172 25.37450571 60.09126979 17.765625 58.01953125 C15.5409518 57.41720791 13.30349714 56.85535589 11.046875 56.38671875 C8.69466783 55.82901802 6.97395038 55.39596987 5 54 C3.1603709 50.09353661 3 46.26045711 3 42 C2.7215625 40.515 2.7215625 40.515 2.4375 39 C2 36 2 36 3 33 C2.9118891 31.18377863 2.75697826 29.37042749 2.5625 27.5625 C1.97150702 21.35707368 1.90060549 15.2287227 2 9 C1.34 8.67 0.68 8.34 0 8 C0.66 8 1.32 8 2 8 C1.34 5.36 0.68 2.72 0 0 Z " fill="#ffff" transform="translate(202,223)"/>
</svg>
